<svg xmlns="http://www.w3.org/2000/svg" width="1500" height="640" viewBox="0 0 1500 640">
<defs><style>text{font-family:Arial,Helvetica,sans-serif;fill:#111827}.panel{font-size:27px;font-weight:700}.head{font-size:23px;font-weight:700}.body{font-size:19px}.small{font-size:15px;fill:#475467}.num{font-size:21px;font-weight:700;fill:#12304A}.axis{font-size:14px;fill:#475467}</style></defs>
<rect x="0" y="0" width="1500" height="640" fill="white"/>
<text x="70.0" y="80.0" class="panel" text-anchor="start">a</text>
<text x="115.0" y="80.0" class="head" text-anchor="start">BUSTED foreground tests</text>
<text x="810.0" y="80.0" class="panel" text-anchor="start">b</text>
<text x="855.0" y="80.0" class="head" text-anchor="start">Reduced PAML</text>
<text x="115.0" y="169.0" class="body" text-anchor="start">Cetacean</text>
<rect x="300.0" y="145.0" width="350.0" height="28.0" rx="2.5" fill="#EEF2F7" stroke="#C8D0DA" stroke-width="1.2"/>
<rect x="300.0" y="145.0" width="247.1" height="28.0" rx="2.5" fill="#21835A" stroke="#21835A" stroke-width="1.2"/>
<text x="675.0" y="168.0" class="num" text-anchor="start">10.8</text>
<text x="115.0" y="251.0" class="body" text-anchor="start">Deep diving</text>
<rect x="300.0" y="227.0" width="350.0" height="28.0" rx="2.5" fill="#EEF2F7" stroke="#C8D0DA" stroke-width="1.2"/>
<rect x="300.0" y="227.0" width="350.0" height="28.0" rx="2.5" fill="#21835A" stroke="#21835A" stroke-width="1.2"/>
<text x="675.0" y="250.0" class="num" text-anchor="start">15.3</text>
<text x="115.0" y="333.0" class="body" text-anchor="start">Aquatic</text>
<rect x="300.0" y="309.0" width="350.0" height="28.0" rx="2.5" fill="#EEF2F7" stroke="#C8D0DA" stroke-width="1.2"/>
<rect x="300.0" y="309.0" width="334.0" height="28.0" rx="2.5" fill="#21835A" stroke="#21835A" stroke-width="1.2"/>
<text x="675.0" y="332.0" class="num" text-anchor="start">14.6</text>
<text x="115.0" y="415.0" class="body" text-anchor="start">Marine</text>
<rect x="300.0" y="391.0" width="350.0" height="28.0" rx="2.5" fill="#EEF2F7" stroke="#C8D0DA" stroke-width="1.2"/>
<rect x="300.0" y="391.0" width="334.0" height="28.0" rx="2.5" fill="#21835A" stroke="#21835A" stroke-width="1.2"/>
<text x="675.0" y="414.0" class="num" text-anchor="start">14.6</text>
<text x="855.0" y="169.0" class="body" text-anchor="start">Cetacean</text>
<rect x="1040.0" y="145.0" width="335.0" height="28.0" rx="2.5" fill="#EEF2F7" stroke="#C8D0DA" stroke-width="1.2"/>
<rect x="1040.0" y="145.0" width="335.0" height="28.0" rx="2.5" fill="#C96B00" stroke="#C96B00" stroke-width="1.2"/>
<text x="1400.0" y="168.0" class="num" text-anchor="start">31.9</text>
<text x="855.0" y="251.0" class="body" text-anchor="start">Deep diving</text>
<rect x="1040.0" y="227.0" width="335.0" height="28.0" rx="2.5" fill="#EEF2F7" stroke="#C8D0DA" stroke-width="1.2"/>
<rect x="1040.0" y="227.0" width="326.6" height="28.0" rx="2.5" fill="#C96B00" stroke="#C96B00" stroke-width="1.2"/>
<text x="1400.0" y="250.0" class="num" text-anchor="start">31.1</text>
<text x="855.0" y="333.0" class="body" text-anchor="start">Aquatic</text>
<rect x="1040.0" y="309.0" width="335.0" height="28.0" rx="2.5" fill="#EEF2F7" stroke="#C8D0DA" stroke-width="1.2"/>
<rect x="1040.0" y="309.0" width="233.1" height="28.0" rx="2.5" fill="#C96B00" stroke="#C96B00" stroke-width="1.2"/>
<text x="1400.0" y="332.0" class="num" text-anchor="start">22.2</text>
<text x="855.0" y="415.0" class="body" text-anchor="start">Marine</text>
<rect x="1040.0" y="391.0" width="335.0" height="28.0" rx="2.5" fill="#EEF2F7" stroke="#C8D0DA" stroke-width="1.2"/>
<rect x="1040.0" y="391.0" width="233.1" height="28.0" rx="2.5" fill="#C96B00" stroke="#C96B00" stroke-width="1.2"/>
<text x="1400.0" y="414.0" class="num" text-anchor="start">22.2</text>
<text x="300.0" y="505.0" class="axis" text-anchor="start">-log10(p)</text>
<text x="1040.0" y="505.0" class="axis" text-anchor="start">LRT statistic</text>
</svg>
