<svg xmlns="http://www.w3.org/2000/svg" width="1500" height="760" viewBox="0 0 1500 760">
<defs><style>text{font-family:Arial,Helvetica,sans-serif;fill:#111827}.panel{font-size:27px;font-weight:700}.head{font-size:23px;font-weight:700}.body{font-size:19px}.small{font-size:15px;fill:#475467}.num{font-size:21px;font-weight:700;fill:#12304A}.axis{font-size:14px;fill:#475467}</style></defs>
<rect x="0" y="0" width="1500" height="760" fill="white"/>
<text x="115.0" y="85.0" class="head" text-anchor="start">Foreground</text>
<text x="560.0" y="85.0" class="head" text-anchor="middle">BUSTED</text>
<text x="720.0" y="85.0" class="head" text-anchor="middle">aBSREL</text>
<text x="880.0" y="85.0" class="head" text-anchor="middle">PAML</text>
<text x="1040.0" y="85.0" class="head" text-anchor="middle">Enrich.</text>
<text x="1220.0" y="85.0" class="head" text-anchor="middle">Claim</text>
<rect x="90.0" y="130.0" width="1260.0" height="48.0" rx="2.5" fill="#ECFDF3" stroke="#C8D0DA" stroke-width="1.2"/>
<text x="115.0" y="161.0" class="body" text-anchor="start">Cetacean</text>
<circle cx="560.0" cy="154.0" r="12.5" fill="#21835A" stroke="white" stroke-width="3"/>
<circle cx="720.0" cy="154.0" r="12.5" fill="#21835A" stroke="white" stroke-width="3"/>
<circle cx="880.0" cy="154.0" r="12.5" fill="#21835A" stroke="white" stroke-width="3"/>
<circle cx="1040.0" cy="154.0" r="12.5" fill="#C96B00" stroke="white" stroke-width="3"/>
<circle cx="1220.0" cy="154.0" r="12.5" fill="#21835A" stroke="white" stroke-width="3"/>
<rect x="90.0" y="196.0" width="1260.0" height="48.0" rx="2.5" fill="#ECFDF3" stroke="#C8D0DA" stroke-width="1.2"/>
<text x="115.0" y="227.0" class="body" text-anchor="start">Deep diving</text>
<circle cx="560.0" cy="220.0" r="12.5" fill="#21835A" stroke="white" stroke-width="3"/>
<circle cx="720.0" cy="220.0" r="12.5" fill="#21835A" stroke="white" stroke-width="3"/>
<circle cx="880.0" cy="220.0" r="12.5" fill="#21835A" stroke="white" stroke-width="3"/>
<circle cx="1040.0" cy="220.0" r="12.5" fill="#C96B00" stroke="white" stroke-width="3"/>
<circle cx="1220.0" cy="220.0" r="12.5" fill="#21835A" stroke="white" stroke-width="3"/>
<rect x="90.0" y="262.0" width="1260.0" height="48.0" rx="2.5" fill="#ECFDF3" stroke="#C8D0DA" stroke-width="1.2"/>
<text x="115.0" y="293.0" class="body" text-anchor="start">Aquatic</text>
<circle cx="560.0" cy="286.0" r="12.5" fill="#21835A" stroke="white" stroke-width="3"/>
<circle cx="720.0" cy="286.0" r="12.5" fill="#21835A" stroke="white" stroke-width="3"/>
<circle cx="880.0" cy="286.0" r="12.5" fill="#21835A" stroke="white" stroke-width="3"/>
<circle cx="1040.0" cy="286.0" r="12.5" fill="#C96B00" stroke="white" stroke-width="3"/>
<circle cx="1220.0" cy="286.0" r="12.5" fill="#21835A" stroke="white" stroke-width="3"/>
<rect x="90.0" y="328.0" width="1260.0" height="48.0" rx="2.5" fill="#ECFDF3" stroke="#C8D0DA" stroke-width="1.2"/>
<text x="115.0" y="359.0" class="body" text-anchor="start">Marine</text>
<circle cx="560.0" cy="352.0" r="12.5" fill="#21835A" stroke="white" stroke-width="3"/>
<circle cx="720.0" cy="352.0" r="12.5" fill="#21835A" stroke="white" stroke-width="3"/>
<circle cx="880.0" cy="352.0" r="12.5" fill="#21835A" stroke="white" stroke-width="3"/>
<circle cx="1040.0" cy="352.0" r="12.5" fill="#C96B00" stroke="white" stroke-width="3"/>
<circle cx="1220.0" cy="352.0" r="12.5" fill="#21835A" stroke="white" stroke-width="3"/>
<rect x="90.0" y="394.0" width="1260.0" height="48.0" rx="2.5" fill="#F8FAFC" stroke="#C8D0DA" stroke-width="1.2"/>
<text x="115.0" y="425.0" class="body" text-anchor="start">Pinniped</text>
<circle cx="560.0" cy="418.0" r="12.5" fill="#D7DEE8" stroke="white" stroke-width="3"/>
<circle cx="720.0" cy="418.0" r="12.5" fill="#D7DEE8" stroke="white" stroke-width="3"/>
<circle cx="880.0" cy="418.0" r="12.5" fill="#D7DEE8" stroke="white" stroke-width="3"/>
<circle cx="1040.0" cy="418.0" r="12.5" fill="#D7DEE8" stroke="white" stroke-width="3"/>
<circle cx="1220.0" cy="418.0" r="12.5" fill="#D7DEE8" stroke="white" stroke-width="3"/>
<rect x="90.0" y="460.0" width="1260.0" height="48.0" rx="2.5" fill="#F8FAFC" stroke="#C8D0DA" stroke-width="1.2"/>
<text x="115.0" y="491.0" class="body" text-anchor="start">Semi-aquatic</text>
<circle cx="560.0" cy="484.0" r="12.5" fill="#D7DEE8" stroke="white" stroke-width="3"/>
<circle cx="720.0" cy="484.0" r="12.5" fill="#D7DEE8" stroke="white" stroke-width="3"/>
<circle cx="880.0" cy="484.0" r="12.5" fill="#D7DEE8" stroke="white" stroke-width="3"/>
<circle cx="1040.0" cy="484.0" r="12.5" fill="#D7DEE8" stroke="white" stroke-width="3"/>
<circle cx="1220.0" cy="484.0" r="12.5" fill="#D7DEE8" stroke="white" stroke-width="3"/>
<circle cx="215.0" cy="585.0" r="10.0" fill="#21835A" stroke="white" stroke-width="3"/>
<text x="235.0" y="591.0" class="small" text-anchor="start">supported evidence</text>
<circle cx="410.0" cy="585.0" r="10.0" fill="#C96B00" stroke="white" stroke-width="3"/>
<text x="430.0" y="591.0" class="small" text-anchor="start">exploratory trend</text>
<circle cx="630.0" cy="585.0" r="10.0" fill="#D7DEE8" stroke="white" stroke-width="3"/>
<text x="650.0" y="591.0" class="small" text-anchor="start">not supported here</text>
<rect x="90.0" y="635.0" width="1260.0" height="58.0" rx="2.5" fill="#FFF7ED" stroke="#FED7AA" stroke-width="1.2"/>
<text x="120.0" y="672.0" class="small" text-anchor="start">Supported claim: foreground-associated molecular evolutionary heterogeneity; not direct diving or viral adaptation.</text>
</svg>
